# Blender3D v249 OBJ File: backdrop.blend
# www.blender3d.org
o Cube
v 5.000000 0.500000 -10.000000
v 5.000000 -0.500000 -10.000000
v -5.000000 -0.500000 -10.000000
v -5.000000 0.500000 -10.000000
v 5.000000 0.500000 10.000000
v 5.000000 -0.500000 10.000000
v -5.000000 -0.500000 10.000000
v -5.000000 0.500000 10.000000
v 5.200000 0.500000 -10.200001
v -5.200000 0.500000 10.200001
v 5.200000 -0.500000 -10.200001
v -5.200000 -0.500000 -10.200001
v 5.199999 -0.500000 10.200001
v -5.200000 -0.500000 10.200001
v -5.200000 0.500000 -10.200001
v 5.199999 0.500000 10.200001
vn 0.000000 0.000000 1.000000
vn 0.000000 0.000000 -1.000000
vn -1.000000 0.000000 0.000000
vn 1.000000 -0.000000 0.000000
vn 0.000000 1.000000 -0.000000
vn -0.000000 -1.000000 0.000000
usemtl Material
s off
f 1//1 4//1 3//1 2//1
f 5//2 6//2 7//2 8//2
f 1//3 2//3 6//3 5//3
f 3//4 4//4 8//4 7//4
f 1//5 9//5 15//5 4//5
f 9//5 1//5 5//5 16//5
f 4//5 15//5 10//5 8//5
f 8//5 10//5 16//5 5//5
f 3//6 12//6 11//6 2//6
f 2//6 11//6 13//6 6//6
f 7//6 14//6 12//6 3//6
f 6//6 13//6 14//6 7//6
f 12//2 15//2 9//2 11//2
f 11//4 9//4 16//4 13//4
f 14//3 10//3 15//3 12//3
f 13//1 16//1 10//1 14//1
