# Blender3D v249 OBJ File: backdrop.blend
# www.blender3d.org
o Cube
v 5.000000 0.500000 -10.000000
v 5.000000 -0.500000 -10.000000
v -5.000000 -0.500000 -10.000000
v -5.000000 0.500000 -10.000000
v 5.000000 0.500000 10.000000
v 5.000000 -0.500000 10.000000
v -5.000000 -0.500000 10.000000
v -5.000000 0.500000 10.000000
v 5.300000 0.500000 -10.300001
v -5.300000 0.500000 10.300001
v 5.300000 -0.500000 -10.300001
v -5.300000 -0.500000 -10.300001
v 5.299999 -0.500000 10.300001
v -5.300000 -0.500000 10.300001
v -5.300000 0.500000 -10.300001
v 5.299999 0.500000 10.300001
v 11.299999 0.500000 10.300001
v 6.700000 0.500000 5.699999
v 6.700000 -0.500000 10.300001
v 11.299999 -0.500000 10.300001
v 6.700000 -0.500000 5.699999
v 11.299999 -0.500000 5.699999
v 6.700000 0.500000 10.300001
v 11.299999 0.500000 5.699999
v 7.000000 0.500000 10.000000
v 7.000000 -0.500000 10.000000
v 11.000000 -0.500000 10.000000
v 11.000000 0.500000 10.000000
v 7.000000 0.500000 6.000000
v 7.000000 -0.500000 6.000000
v 11.000000 -0.500000 6.000000
v 11.000000 0.500000 6.000000
v -4.000000 0.000000 10.000000
v -4.000000 0.000000 -10.000000
v -3.000000 0.000000 -10.000000
v -3.000000 0.000000 10.000000
v -2.000000 0.000000 10.000000
v -2.000000 0.000000 -10.000000
v -1.000000 0.000000 -10.000000
v -1.000000 0.000000 10.000000
v 0.000000 0.000000 10.000000
v 0.000000 0.000000 -10.000000
v 1.000000 0.000000 -10.000000
v 1.000000 0.000000 10.000000
v 2.000000 0.000000 10.000000
v 2.000000 0.000000 -10.000000
v 3.000000 0.000000 -10.000000
v 3.000000 0.000000 10.000000
v 4.000000 0.000000 10.000000
v 4.000000 0.000000 -10.000000
v 5.000000 0.000000 9.000000
v -5.000000 0.000000 9.000000
v -5.000000 0.000000 8.000000
v 5.000000 0.000000 8.000000
v 5.000000 0.000000 6.000000
v -5.000000 0.000000 6.000000
v -5.000000 0.000000 7.000000
v 5.000000 0.000000 7.000000
v 5.000000 0.000000 3.000000
v -5.000000 0.000000 3.000000
v -5.000000 0.000000 2.000000
v 5.000000 0.000000 2.000000
v 5.000000 0.000000 4.000000
v -5.000000 0.000000 4.000000
v -5.000000 0.000000 5.000000
v 5.000000 0.000000 5.000000
v 5.000000 0.000000 1.000000
v -5.000000 0.000000 1.000000
v -5.000000 0.000000 0.000000
v 5.000000 0.000000 0.000000
v 5.000000 0.000000 -2.000000
v -5.000000 0.000000 -2.000000
v -5.000000 0.000000 -1.000000
v 5.000000 0.000000 -1.000000
v 5.000000 0.000000 -5.000000
v -5.000000 0.000000 -5.000000
v -5.000000 0.000000 -6.000000
v 5.000000 0.000000 -6.000000
v 5.000000 0.000000 -4.000000
v -5.000000 0.000000 -4.000000
v -5.000000 0.000000 -3.000000
v 5.000000 0.000000 -3.000000
v 5.000000 0.000000 -7.000000
v -5.000000 0.000000 -7.000000
v -5.000000 0.000000 -8.000000
v 5.000000 0.000000 -8.000000
v -5.000000 0.000000 -9.000000
v 5.000000 0.000000 -9.000000
vn 0.000000 0.000000 1.000000
vn 0.000000 0.000000 -1.000000
vn -1.000000 0.000000 0.000000
vn 1.000000 -0.000000 0.000000
vn 0.000000 1.000000 -0.000000
vn -0.000000 -1.000000 0.000000
usemtl Material
s off
f 1//1 4//1 3//1 2//1
f 5//2 6//2 7//2 8//2
f 1//3 2//3 6//3 5//3
f 3//4 4//4 8//4 7//4
f 1//5 9//5 15//5 4//5
f 9//5 1//5 5//5 16//5
f 4//5 15//5 10//5 8//5
f 8//5 10//5 16//5 5//5
f 3//6 12//6 11//6 2//6
f 2//6 11//6 13//6 6//6
f 7//6 14//6 12//6 3//6
f 6//6 13//6 14//6 7//6
f 12//2 15//2 9//2 11//2
f 11//4 9//4 16//4 13//4
f 14//3 10//3 15//3 12//3
f 13//1 16//1 10//1 14//1
f 20//1 17//1 23//1 19//1
f 19//3 23//3 18//3 21//3
f 22//4 24//4 17//4 20//4
f 21//2 18//2 24//2 22//2
f 27//6 20//6 19//6 26//6
f 26//6 19//6 21//6 30//6
f 31//6 22//6 20//6 27//6
f 30//6 21//6 22//6 31//6
f 25//5 23//5 17//5 28//5
f 29//5 18//5 23//5 25//5
f 24//5 32//5 28//5 17//5
f 32//5 24//5 18//5 29//5
f 30//4 29//4 25//4 26//4
f 32//3 31//3 27//3 28//3
f 28//2 27//2 26//2 25//2
f 32//1 29//1 30//1 31//1
f 33 34
f 35 36
f 37 38
f 39 40
f 41 42
f 43 44
f 45 46
f 47 48
f 49 50
f 51 52
f 53 54
f 56 55
f 58 57
f 60 59
f 62 61
f 64 63
f 66 65
f 67 68
f 69 70
f 72 71
f 74 73
f 75 76
f 77 78
f 79 80
f 82 81
f 83 84
f 86 85
f 87 88
