# Blender3D v249 OBJ File: blocks.blend
# www.blender3d.org
o Cube
v -0.800000 0.800000 -1.000000
v 0.800000 0.800000 -1.000000
v -0.800000 -0.800000 -1.000000
v 0.800000 -0.800000 -1.000000
v -0.800000 0.800000 1.000000
v 0.800000 0.800000 1.000000
v -0.800000 -0.800000 1.000000
v 0.800000 -0.800000 1.000000
v -1.000000 0.800000 -0.800000
v -1.000000 0.800000 0.800000
v -1.000000 -0.800000 -0.800000
v -1.000000 -0.800000 0.800000
v 1.000000 0.800000 0.800000
v 1.000000 0.800000 -0.800000
v 1.000000 -0.800000 0.800000
v 1.000000 -0.800000 -0.800000
v -0.800000 1.000000 -0.800000
v 0.800000 1.000000 -0.800000
v -0.800000 1.000000 0.800000
v 0.800000 1.000000 0.800000
v -0.800000 -1.000000 0.800000
v -0.800000 -1.000000 -0.800000
v 0.800000 -1.000000 -0.800000
v 0.800000 -1.000000 0.800000
vt 1.000000 0.250002
vt 0.999999 0.462447
vt 0.787554 0.462446
vt 0.787555 0.250001
vt 0.499999 0.250000
vt 0.499999 0.462444
vt 0.287555 0.462444
vt 0.287555 0.250000
vt 0.250000 0.250000
vt 0.250000 0.462444
vt 0.037555 0.462445
vt 0.037555 0.250000
vt 0.750000 0.250001
vt 0.749999 0.462445
vt 0.537554 0.462445
vt 0.537555 0.250000
vt 0.499999 0.712444
vt 0.287555 0.712444
vt 0.287555 0.499999
vt 0.499999 0.500000
vt 0.287555 0.212445
vt 0.287555 0.000000
vt 0.499999 0.000000
vt 0.499999 0.212445
vt 0.749999 0.500001
vt 0.537554 0.500000
vt 0.518777 0.494968
vt 0.768776 0.494969
vt 0.999999 0.500002
vt 0.787554 0.500001
vt 0.000000 0.462445
vt 0.018778 0.494969
vt 0.250000 0.500000
vt 0.037556 0.500000
vt 0.268778 0.494968
vt 0.000000 0.250001
vt 0.018778 0.217477
vt 0.787555 0.212446
vt 1.000000 0.212447
vt 0.768778 0.217477
vt 0.537555 0.212445
vt 0.750000 0.212445
vt 0.518777 0.217476
vt 0.268777 0.217476
vt 0.037555 0.212445
vt 0.250000 0.212445
vn -0.366985 -0.366985 -0.854762
vn -0.366985 0.366985 -0.854762
vn 0.366985 0.366985 -0.854762
vn 0.366985 -0.366985 -0.854762
vn 0.366985 -0.366985 0.854762
vn 0.366985 0.366985 0.854762
vn -0.366985 0.366985 0.854762
vn -0.366985 -0.366985 0.854762
vn -0.854762 -0.366985 0.366985
vn -0.854762 0.366985 0.366985
vn -0.854762 0.366985 -0.366985
vn -0.854762 -0.366985 -0.366985
vn 0.854762 -0.366985 -0.366985
vn 0.854762 0.366985 -0.366985
vn 0.854762 0.366985 0.366985
vn 0.854762 -0.366985 0.366985
vn 0.366985 0.854762 -0.366985
vn -0.366985 0.854762 -0.366985
vn -0.366985 0.854762 0.366985
vn 0.366985 0.854762 0.366985
vn -0.366985 -0.854762 0.366985
vn -0.366985 -0.854762 -0.366985
vn 0.366985 -0.854762 -0.366985
vn 0.366985 -0.854762 0.366985
usemtl FinalMaterial_FinalMap
s 1
f 3/1/1 1/2/2 2/3/3 4/4/4
f 8/5/5 6/6/6 5/7/7 7/8/8
f 12/9/9 10/10/10 9/11/11 11/12/12
f 16/13/13 14/14/14 13/15/15 15/16/16
f 18/17/17 17/18/18 19/19/19 20/20/20
f 21/21/21 22/22/22 23/23/23 24/24/24
f 13/15/15 14/14/14 18/25/17 20/26/20
f 5/7/7 6/6/6 20/20/20 19/19/19
f 6/6/6 13/15/15 20/27/20
f 6/6/6 8/5/5 15/16/16 13/15/15
f 2/3/3 18/28/17 14/14/14
f 1/2/2 17/29/18 18/30/17 2/3/3
f 1/31/2 9/11/11 17/32/18
f 9/11/11 10/10/10 19/33/19 17/34/18
f 5/7/7 19/35/19 10/10/10
f 5/7/7 10/10/10 12/9/9 7/8/8
f 1/31/2 3/36/1 11/12/12 9/11/11
f 3/36/1 22/37/22 11/12/12
f 3/1/1 4/4/4 23/38/23 22/39/22
f 2/3/3 14/14/14 16/13/13 4/4/4
f 4/4/4 16/13/13 23/40/23
f 15/16/16 24/41/24 23/42/23 16/13/13
f 8/5/5 24/43/24 15/16/16
f 7/8/8 21/21/21 24/24/24 8/5/5
f 7/8/8 12/9/9 21/44/21
f 11/12/12 22/45/22 21/46/21 12/9/9
